<mxfile host="app.diagrams.net" agent="Mozilla/5.0 (Windows NT 10.0; Win64; x64) AppleWebKit/537.36 (KHTML, like Gecko) Chrome/134.0.0.0 Safari/537.36" version="26.0.14">
  <diagram name="Page-1" id="rhzkD6l8VQ9EGLtatepY">
    <mxGraphModel dx="1354" dy="600" grid="1" gridSize="10" guides="1" tooltips="1" connect="1" arrows="1" fold="1" page="1" pageScale="1" pageWidth="827" pageHeight="1169" math="0" shadow="0">
      <root>
        <mxCell id="0" />
        <mxCell id="1" parent="0" />
        <mxCell id="aPcHSkKah6Zcf7Fpc5Z5-8" value="" style="rounded=0;whiteSpace=wrap;html=1;" vertex="1" parent="1">
          <mxGeometry x="200" y="40" width="460" height="560" as="geometry" />
        </mxCell>
        <mxCell id="aPcHSkKah6Zcf7Fpc5Z5-1" value="Lovski čuvaj" style="shape=umlActor;verticalLabelPosition=bottom;verticalAlign=top;html=1;outlineConnect=0;" vertex="1" parent="1">
          <mxGeometry x="50" y="110" width="30" height="60" as="geometry" />
        </mxCell>
        <mxCell id="aPcHSkKah6Zcf7Fpc5Z5-2" value="Starešina" style="shape=umlActor;verticalLabelPosition=bottom;verticalAlign=top;html=1;outlineConnect=0;" vertex="1" parent="1">
          <mxGeometry x="50" y="350" width="30" height="60" as="geometry" />
        </mxCell>
        <mxCell id="aPcHSkKah6Zcf7Fpc5Z5-3" value="Gospodar" style="shape=umlActor;verticalLabelPosition=bottom;verticalAlign=top;html=1;outlineConnect=0;" vertex="1" parent="1">
          <mxGeometry x="50" y="230" width="30" height="60" as="geometry" />
        </mxCell>
        <mxCell id="aPcHSkKah6Zcf7Fpc5Z5-4" value="Skrbnik LČS" style="shape=umlActor;verticalLabelPosition=bottom;verticalAlign=top;html=1;outlineConnect=0;" vertex="1" parent="1">
          <mxGeometry x="50" y="470" width="30" height="60" as="geometry" />
        </mxCell>
        <mxCell id="aPcHSkKah6Zcf7Fpc5Z5-7" value="Urejanje šifranta kategorizacije" style="ellipse;whiteSpace=wrap;html=1;" vertex="1" parent="1">
          <mxGeometry x="414" y="500" width="100" height="60" as="geometry" />
        </mxCell>
        <mxCell id="aPcHSkKah6Zcf7Fpc5Z5-10" value="Zajem podatkov z glasovnim zapisom" style="ellipse;whiteSpace=wrap;html=1;" vertex="1" parent="1">
          <mxGeometry x="330" y="190" width="120" height="60" as="geometry" />
        </mxCell>
        <mxCell id="aPcHSkKah6Zcf7Fpc5Z5-12" value="" style="endArrow=classic;html=1;rounded=0;exitX=1;exitY=0.3333333333333333;exitDx=0;exitDy=0;exitPerimeter=0;" edge="1" parent="1" source="aPcHSkKah6Zcf7Fpc5Z5-1" target="aPcHSkKah6Zcf7Fpc5Z5-10">
          <mxGeometry width="50" height="50" relative="1" as="geometry">
            <mxPoint x="390" y="340" as="sourcePoint" />
            <mxPoint x="440" y="290" as="targetPoint" />
          </mxGeometry>
        </mxCell>
        <mxCell id="aPcHSkKah6Zcf7Fpc5Z5-13" value="Zajem fotografij" style="ellipse;whiteSpace=wrap;html=1;" vertex="1" parent="1">
          <mxGeometry x="370" y="280" width="110" height="60" as="geometry" />
        </mxCell>
        <mxCell id="aPcHSkKah6Zcf7Fpc5Z5-14" value="" style="endArrow=classic;html=1;rounded=0;entryX=0;entryY=0.5;entryDx=0;entryDy=0;" edge="1" parent="1" target="aPcHSkKah6Zcf7Fpc5Z5-13">
          <mxGeometry width="50" height="50" relative="1" as="geometry">
            <mxPoint x="80" y="130" as="sourcePoint" />
            <mxPoint x="291" y="116" as="targetPoint" />
          </mxGeometry>
        </mxCell>
        <mxCell id="aPcHSkKah6Zcf7Fpc5Z5-15" value="Mobilna aplikacija" style="text;html=1;align=center;verticalAlign=middle;whiteSpace=wrap;rounded=0;" vertex="1" parent="1">
          <mxGeometry x="200" y="10" width="110" height="30" as="geometry" />
        </mxCell>
        <mxCell id="aPcHSkKah6Zcf7Fpc5Z5-16" value="" style="endArrow=classic;html=1;rounded=0;exitX=1;exitY=0.3333333333333333;exitDx=0;exitDy=0;exitPerimeter=0;entryX=0;entryY=0.5;entryDx=0;entryDy=0;" edge="1" parent="1" source="aPcHSkKah6Zcf7Fpc5Z5-4" target="aPcHSkKah6Zcf7Fpc5Z5-7">
          <mxGeometry width="50" height="50" relative="1" as="geometry">
            <mxPoint x="90" y="490" as="sourcePoint" />
            <mxPoint x="440" y="290" as="targetPoint" />
          </mxGeometry>
        </mxCell>
        <mxCell id="aPcHSkKah6Zcf7Fpc5Z5-18" value="Pregled lovcev na lovišču" style="ellipse;whiteSpace=wrap;html=1;" vertex="1" parent="1">
          <mxGeometry x="340" y="390" width="110" height="60" as="geometry" />
        </mxCell>
        <mxCell id="aPcHSkKah6Zcf7Fpc5Z5-20" value="" style="endArrow=classic;html=1;rounded=0;exitX=1;exitY=0.3333333333333333;exitDx=0;exitDy=0;exitPerimeter=0;entryX=0;entryY=0.5;entryDx=0;entryDy=0;" edge="1" parent="1" source="aPcHSkKah6Zcf7Fpc5Z5-3" target="aPcHSkKah6Zcf7Fpc5Z5-18">
          <mxGeometry width="50" height="50" relative="1" as="geometry">
            <mxPoint x="390" y="340" as="sourcePoint" />
            <mxPoint x="440" y="290" as="targetPoint" />
          </mxGeometry>
        </mxCell>
        <mxCell id="aPcHSkKah6Zcf7Fpc5Z5-26" value="" style="endArrow=classic;html=1;rounded=0;exitX=0.5;exitY=0;exitDx=0;exitDy=0;exitPerimeter=0;" edge="1" parent="1" source="aPcHSkKah6Zcf7Fpc5Z5-2" target="aPcHSkKah6Zcf7Fpc5Z5-3">
          <mxGeometry width="50" height="50" relative="1" as="geometry">
            <mxPoint x="390" y="320" as="sourcePoint" />
            <mxPoint x="440" y="270" as="targetPoint" />
          </mxGeometry>
        </mxCell>
        <mxCell id="aPcHSkKah6Zcf7Fpc5Z5-29" value="Beleženje lokacije na lovišču" style="ellipse;whiteSpace=wrap;html=1;" vertex="1" parent="1">
          <mxGeometry x="390" y="90" width="110" height="60" as="geometry" />
        </mxCell>
        <mxCell id="aPcHSkKah6Zcf7Fpc5Z5-30" value="" style="endArrow=classic;html=1;rounded=0;entryX=0;entryY=0.5;entryDx=0;entryDy=0;" edge="1" parent="1" target="aPcHSkKah6Zcf7Fpc5Z5-29">
          <mxGeometry width="50" height="50" relative="1" as="geometry">
            <mxPoint x="80" y="130" as="sourcePoint" />
            <mxPoint x="301" y="197" as="targetPoint" />
          </mxGeometry>
        </mxCell>
      </root>
    </mxGraphModel>
  </diagram>
</mxfile>
